<?xml version="1.0" encoding="utf-8"?>
<!-- Generator: Adobe Illustrator 24.0.3, SVG Export Plug-In . SVG Version: 6.00 Build 0)  -->
<svg version="1.1" id="Layer_1" xmlns="http://www.w3.org/2000/svg" xmlns:xlink="http://www.w3.org/1999/xlink" x="0px" y="0px"
	 viewBox="0 0 109.6 32.5" style="enable-background:new 0 0 109.6 32.5;" xml:space="preserve">
<style type="text/css">
	.st0{stroke:#000000;stroke-width:0.5;}
</style>
<g>
	<g id="Group_143_1_" transform="translate(-37.922 -33.819)">
		<g id="Group_117_1_" transform="translate(38.172 34.069)">
			<path id="Path_12_1_" class="st0" d="M28.2,32H3.7c-2.1,0-3.8-1.7-3.8-3.8V3.8C-0.1,1.7,1.6,0,3.7,0h24.5c2.1,0,3.8,1.7,3.8,3.8
				v24.3C32,30.2,30.3,31.9,28.2,32 M3.7,0.3c-2,0-3.6,1.6-3.6,3.6v24.3c0,2,1.6,3.6,3.6,3.6h24.5c2,0,3.6-1.6,3.6-3.6V3.8
				c0-2-1.6-3.6-3.6-3.6H3.7z"/>
		</g>
	</g>
	<g>
		<g>
			<path d="M24.3,10.7V22v0.1c-0.6,0.2-2.1,0.4-3,0.4c-2,0-3-0.6-3-3.2v-0.1v-8.5h-3.1v8.5c0,4,1.9,5.8,5,6.2c0.4,0,0.9,0.1,1.3,0.1
				c2.7-0.1,4.3-0.7,5.6-1.3c0.2-0.1,0.3-0.3,0.3-0.5v-13H24.3z"/>
			<path d="M13.5,23.3c-0.1-0.2-0.4-1-0.4-1c-0.1-0.1-0.2-0.2-0.4-0.2c0,0-0.5,0.1-0.9,0.1c-2.5,0.1-3.4-0.8-3.3-3.4v-0.1v-5v-0.1h4
				v-2.9h-4v-0.1V7.6H5.5v2.9v0.1H4.1v2.9h1.4v0.1v5.6c0.1,3.7,1.6,5.2,4.1,5.8c0.4,0.1,2,0.2,2.7,0.1c0.4,0,1.2-0.3,1.5-0.4
				c0.1-0.1,0.3-0.2,0.4-0.4c0-0.2-0.1-0.2-0.2-0.4C13.8,23.9,13.7,23.6,13.5,23.3z"/>
		</g>
		<g>
			<g id="XMLID_42_">
				<path id="XMLID_48_" d="M49.8,11.7v11c0,0.8-0.8,1.6-1.6,1.6h-9.5V11.7H49.8z M37.3,10.3c-0.3,0-0.5,0.2-0.5,0.5v14.3
					c0,0.3,0.2,0.6,0.6,0.6h12.1c1.2,0,2.3-1.3,2.3-2.5V10.8c0-0.3-0.3-0.6-0.6-0.6H37.3z"/>
				<path id="XMLID_47_" d="M47.7,13.4c0,0-5.4,0-5.4,0l0.7-0.8c0.1-0.1,0-0.2-0.1-0.2h-1.9l-0.9,1.2c-0.1,0.2-0.1,0.6,0,0.8
					c0.1,0.2,0.3,0.3,0.6,0.3l5.8,0c-1.2,1.2-3.2,2.2-5.3,2.8c-0.4,0.1-0.8,0.2-1.2,0.3c-0.3,0.1-0.5,0.1-0.8,0.2v1.2
					c0.6-0.1,1.2-0.2,1.8-0.3c1.6-0.3,2.9-0.8,3.9-1.3c1.6-0.7,3.1-2,3.5-2.7c0.1-0.1,0.1-0.3,0.1-0.5
					C48.7,13.8,48.3,13.4,47.7,13.4z"/>
				<g id="XMLID_45_">
					<path id="XMLID_46_" d="M47.2,17.5c-1.6-0.5-4-1.5-4.8-2.3h-2c-0.1,0-0.1,0.1-0.1,0.2c0.9,1.1,3.3,2.3,5.6,3
						c1.2,0.4,2.3,0.6,3.4,0.7V18C48.6,17.8,47.9,17.7,47.2,17.5z"/>
				</g>
				<path id="XMLID_44_" d="M44.3,19.4c-0.4,0-2.3-0.1-2.5-0.1v1.5c0,0,1.5,0,2.5,0.1c0.9,0.1,2.9,0.3,2.9,0.3v-1.3
					C46.5,19.7,45.1,19.4,44.3,19.4z"/>
				<path id="XMLID_43_" d="M44.3,21.7c-0.4,0-3.5-0.2-3.8-0.2V23c0,0,2.8,0.1,3.8,0.2c0.9,0.1,4,0.2,4,0.2v-1.3
					C47.6,21.9,44.6,21.7,44.3,21.7z"/>
			</g>
			<g id="XMLID_20_">
				<path id="XMLID_41_" d="M57.2,18.8C57.2,18.8,57.2,18.8,57.2,18.8c-0.1,2.2-0.7,4.1-1.5,5.5c-0.1,0.2,0,0.4,0.2,0.4l1,0
					c0,0,0.1,0,0.1-0.1c1-1.4,1.6-3.4,1.7-5.7c-0.1-0.1-0.1-0.1-0.1-0.1H57.2z"/>
				<path id="XMLID_40_" d="M69.9,18.8C69.9,18.8,69.9,18.8,69.9,18.8c0.1,2.2,0.7,4.1,1.5,5.5c0.1,0.2,0,0.4-0.2,0.4l-1.1,0
					c-1-1.4-1.7-3.5-1.8-5.9l0,0H69.9z"/>
				<path id="XMLID_39_" d="M59.6,12.6c-0.4,1.2-1.2,2.3-2.4,3.1c-0.2,0.2-0.5,0.3-0.8,0.4v1.1c0,0.1,0.1,0.1,0.2,0.1
					c0.8-0.1,1.6-0.5,2.4-1c1.4-0.9,2.3-2.3,2.6-3.8H59.6z"/>
				<path id="XMLID_38_" d="M67.5,12.6c0.4,1.2,1.2,2.3,2.4,3.1c0.2,0.2,0.5,0.3,0.8,0.4v1.1c0,0.1-0.1,0.2-0.2,0.1
					c-0.8-0.1-1.6-0.5-2.4-1c-1.4-0.9-2.3-2.3-2.6-3.8H67.5z"/>
				<g id="XMLID_36_">
					<path id="XMLID_37_" d="M69.9,13.2H57.1c-0.1,0-0.1-0.1-0.1-0.2v-1.1c0-0.1,0.1-0.2,0.1-0.2h12.9c0.1,0,0.1,0.1,0.1,0.2V13
						C70.1,13.1,70,13.2,69.9,13.2z"/>
				</g>
				<g id="XMLID_34_">
					<path id="XMLID_35_" d="M63,19.4h-6.4c-0.1,0-0.1-0.1-0.1-0.2v-1c0-0.1,0.1-0.2,0.1-0.2H63c0.1,0,0.1,0.1,0.1,0.2v1
						C63.1,19.3,63.1,19.4,63,19.4z"/>
				</g>
				<g id="XMLID_32_">
					<path id="XMLID_33_" d="M70.6,19.4h-6.3c-0.1,0-0.1-0.1-0.1-0.2v-1c0-0.1,0.1-0.2,0.1-0.2h6.3c0.1,0,0.1,0.1,0.1,0.2v1
						C70.7,19.3,70.6,19.4,70.6,19.4z"/>
				</g>
				<g id="XMLID_30_">
					<path id="XMLID_31_" d="M64.3,17.2h-1.6c-0.1,0-0.1-0.1-0.1-0.2v-6.9c0-0.1,0.1-0.2,0.1-0.2h1.6c0.1,0,0.1,0.1,0.1,0.2v6.9
						C64.5,17.1,64.4,17.2,64.3,17.2z"/>
				</g>
				<g id="XMLID_28_">
					<path id="XMLID_29_" d="M60.7,26h-1.3c-0.1,0-0.1-0.1-0.1-0.1V17c0-0.1,0.1-0.1,0.1-0.1h1.3c0.1,0,0.1,0.1,0.1,0.1v8.8
						C60.9,26,60.8,26,60.7,26z"/>
				</g>
				<g id="XMLID_26_">
					<path id="XMLID_27_" d="M67.7,26h-1.3c-0.1,0-0.1-0.1-0.1-0.1V17c0-0.1,0.1-0.1,0.1-0.1h1.3c0.1,0,0.1,0.1,0.1,0.1v8.8
						C67.8,26,67.7,26,67.7,26z"/>
				</g>
				<path id="XMLID_25_" d="M63.2,24L63.2,24C63.2,24.1,63.2,24.1,63.2,24L63.2,24z"/>
				<g id="XMLID_23_">
					<path id="XMLID_24_" d="M64.2,20c-0.2,1.8-0.8,3.4-1.5,4.5c-0.1,0.1,0,0.2,0.1,0.2h1.3c0.8-1.2,1.4-2.8,1.7-4.7H64.2z"/>
				</g>
				<g id="XMLID_21_">
					<path id="XMLID_22_" d="M61.3,20c0.2,1.2,0.5,2.3,0.9,3.2c0.1,0.2,0.4,0.2,0.5,0c0.2-0.5,0.4-1,0.6-1.5
						c-0.1-0.5-0.3-1.1-0.3-1.7H61.3z"/>
				</g>
			</g>
			<g id="XMLID_13_">
				<path id="XMLID_19_" d="M78.1,17.3c-0.1,0.7-0.3,1.4-0.5,2C77,21.3,76.1,23,75,24.3c-0.2,0.2,0,0.5,0.2,0.5l1.6,0
					c1.1-1.3,2.1-3,2.8-5.1c0.3-0.8,0.5-1.6,0.6-2.4H78.1z"/>
				<path id="XMLID_18_" d="M87.1,17.3c0.1,0,0.2,0.1,0.2,0.1c0.1,0.6,0.3,1.3,0.5,1.9c0.6,1.9,1.5,3.6,2.6,4.9
					c0.2,0.2,0,0.5-0.2,0.5l-1.6,0c-0.1,0-0.1,0-0.1-0.1c-1.1-1.3-2.1-3-2.8-5c-0.2-0.7-0.4-1.4-0.6-2.1c0-0.1,0.1-0.2,0.2-0.2H87.1
					z"/>
				<g id="XMLID_14_">
					<path id="XMLID_17_" d="M89.1,13.2H76.3c-0.1,0-0.2-0.1-0.2-0.1V12c0-0.1,0.1-0.1,0.2-0.1h12.8c0.1,0,0.2,0.1,0.2,0.1v1.1
						C89.2,13.2,89.2,13.2,89.1,13.2z"/>
					<path id="XMLID_16_" d="M89.7,18.1h-14c-0.1,0-0.2-0.1-0.2-0.2v-1.1c0-0.1,0.1-0.2,0.2-0.2h14c0.1,0,0.2,0.1,0.2,0.2v1.1
						C89.9,18,89.8,18.1,89.7,18.1z"/>
					<path id="XMLID_15_" d="M83.5,25.9h-1.6c-0.1,0-0.2-0.1-0.2-0.2V10.2c0-0.1,0.1-0.2,0.2-0.2h1.6c0.1,0,0.2,0.1,0.2,0.2v15.6
						C83.7,25.9,83.6,25.9,83.5,25.9z"/>
				</g>
			</g>
			<g id="XMLID_1_">
				<g id="XMLID_4_">
					<g id="XMLID_11_">
						<path id="XMLID_12_" d="M108.3,13.2H95.1c-0.1,0-0.2-0.1-0.2-0.1V12c0-0.1,0.1-0.1,0.2-0.1h13.2c0.1,0,0.2,0.1,0.2,0.1v1.2
							C108.4,13.2,108.4,13.2,108.3,13.2z"/>
					</g>
					<g id="XMLID_9_">
						<path id="XMLID_10_" d="M108.9,18.6H94.5c-0.1,0-0.2-0.1-0.2-0.1v-1.2c0-0.1,0.1-0.1,0.2-0.1h14.4c0.1,0,0.2,0.1,0.2,0.1v1.2
							C109.1,18.6,109,18.6,108.9,18.6z"/>
					</g>
					<g id="XMLID_7_">
						<path id="XMLID_8_" d="M102.5,25.9h-1.6c-0.1,0-0.2-0.1-0.2-0.2V10.2c0-0.1,0.1-0.2,0.2-0.2h1.6c0.1,0,0.2,0.1,0.2,0.2v15.6
							C102.7,25.9,102.6,25.9,102.5,25.9z"/>
					</g>
					<path id="XMLID_6_" d="M98.9,16.5h-1.7c-0.1,0-0.1,0-0.2-0.1l-1-2.4c0-0.1,0.1-0.2,0.2-0.2H98c0.1,0,0.1,0,0.2,0.1l0.9,2.4
						C99.1,16.5,99,16.5,98.9,16.5z"/>
					<path id="XMLID_5_" d="M106.1,16.5h-1.6c-0.1,0-0.2-0.1-0.2-0.2l0.9-2.4c0-0.1,0.1-0.1,0.2-0.1h1.7c0.1,0,0.2,0.1,0.2,0.2
						l-1,2.4C106.2,16.5,106.1,16.5,106.1,16.5z"/>
				</g>
				<path id="XMLID_3_" d="M97.4,17.3c-0.1,0-0.3,0.1-0.3,0.2c-0.1,0.6-0.3,1.2-0.5,1.8C96,21.3,95.1,23,94,24.3
					c-0.2,0.2,0,0.5,0.2,0.5l1.5,0c0.1,0,0.2,0,0.2-0.1c1.1-1.3,2-3,2.7-4.9c0.2-0.7,0.4-1.3,0.6-2c0-0.2-0.1-0.4-0.3-0.4H97.4z"/>
				<path id="XMLID_2_" d="M106.1,17.3c0.1,0,0.1,0,0.1,0.1c0.1,0.6,0.3,1.3,0.5,1.9c0.6,1.9,1.5,3.6,2.6,4.9c0.2,0.2,0,0.5-0.2,0.5
					h-1.6c0,0-0.1,0-0.1,0c-1.1-1.3-2.1-3-2.8-5c-0.3-0.7-0.5-1.5-0.6-2.2c0-0.1,0-0.2,0.1-0.2H106.1z"/>
			</g>
		</g>
	</g>
</g>
</svg>
